<?xml version="1.0" encoding="utf-8"?>
<!-- Generator: Adobe Illustrator 19.1.0, SVG Export Plug-In . SVG Version: 6.00 Build 0)  -->
<svg version="1.1" id="Layer_1" xmlns="http://www.w3.org/2000/svg" xmlns:xlink="http://www.w3.org/1999/xlink" x="0px" y="0px"
	 viewBox="748 -552.7 2338 1700" style="enable-background:new 748 -552.7 2338 1700;" xml:space="preserve">
<style type="text/css">
	.st0{fill:#464646;}
</style>
<path class="st0" d="M1848.3,311.9c-21-7-29-19-38-55c-3-12-7-29-7-35c0-2,0-5,0-6c-1-2-2-13-2-19c1-2,1-2,2,0c0,1,1,1,2,1s4,1,6,3
	c3,2,6,3,7,3c0,0,2,1,3,2c1,2,2,3,1,3s-1,1-1,2c1,0-1,1-3,1c-2-1-1,19,0,27c1,3,2,6,2,6c0,1,0,2,1,3c0,1,1,5,2,10c2,5,3,10,3,11
	c1,1,2,4,4,8c2,5,8,13,10,13c1,0,3,1,5,2s5,3,7,3c3,0,8-3,8-6c0-1,0-1,1-1c0,0,1-1,0-1c0,0,0-2,1-4c2-3,3-20,2-26c-2-10-6-25-11-35
	c-2-4-4-10-6-13c-1-3-3-6-4-7s-1-2-1-3c0,0-3-3-5-6c-2-2-4-5-4-6c0,0-1,0-3,1c-1,1-2,2-2,1c-1-1-1-5,0-8c1-1,2-5,2-8c0-2,0-4,0-4
	c1,0,2,1,4,2c1,1,2,3,3,3s2,0,2,1c0,0-1,1-2,1c0,0,1,2,4,4c3,3,6,7,7,10c1,2,2,4,3,4s2,2,3,5c2,3,4,8,5,11s3,8,4,10c0,3,1,5,2,6
	c0,0,1,2,1,3s0,3,1,5s2,5,2,7s2,6,3,9c2,4,3,11,4,23l2,16l-3,8c-1,4-4,8-5,10s-2,4-2,4c0,2-3,4-7,4
	C1858.3,314.9,1854.3,313.9,1848.3,311.9z M1849.3,306.9c0-1-1-2-3-2c-1,0-1,0,0,1C1847.3,307.9,1849.3,307.9,1849.3,306.9z
	 M1839.3,297.9c0,0-1-1-2-1s-1,0-1,1C1837.3,297.9,1839.3,298.9,1839.3,297.9z M1872.3,273.9c0,0,0,0,0,1s0,2,0,1
	C1872.3,275.9,1872.3,274.9,1872.3,273.9z M1855.3,204.9c-2-3-3-4-3-3s3,5,3,5S1855.3,205.9,1855.3,204.9z"/>
<path class="st0" d="M2122.3,311.9c-1,0-4-2-6-2c-1-1-4-3-6-3s-6-3-10-8c-9-9-10-11-11-12c0-1-1-3-3-5c-1-2-2-4-2-4c0-1,0-2-2-3
	c-1-1-2-4-2-6c0-1-1-6-2-9c-3-12-2-54,0-58c1,0,2-4,2-8s1-7,1-8c1,0,2-2,2-4c0-3,0-5,6-17c2-4,4-8,4-10c1-6,14-22,16-19c0,0-1,2-2,3
	s-1,3-1,4c0,2-1,4-3,7s-2,4-1,5s0,1-1,1c-1-1-2,2-5,9c0,1-1,3-1,4c-2,0-4,13-3,13c0,1,0,1,0,1c-3,2-4,42-1,55c1,9,2,14,4,14
	c0,0,1,0,1,1c0,2,2,8,5,16c2,4,11,14,16,17c6,3,14,2,21-1c10-5,12-7,13-7c0-1,1-2,3-3c2-2,5-5,7-8s5-8,7-10c1-3,3-6,3-8c1-3,2-4,3-4
	c0,0,1-2,1-3s0-3,1-5c2-4,4-20,3-26c-1-2-1-7-1-9c0-3-1-5-1-5c-1,0-2-4-2-9c-1-6-1-8-2-8s-2-1-2-1c0-1,0-2,0-3s-1-3-1-5c0-1,0-2,0-2
	c-1,0-2-2-3-4c-2-6-8-11-17-15c-8-4-13-4-18,0c-2,2-13,14-16,18c-2,2-5,9-4,10c0,1,0,1-1,2c-2,1-2,3-2,21c0,17,0,20,2,25
	c1,4,3,7,3,8c0,4,9,16,11,15c0,0,0,0,0,1l1,1c1,0,2,0,2,0c0-1,0-1,1-1c0,0,0,0,0,1c-1,1,4,1,7,0c3-2,8-6,8-8c0-1,0-1,1-1
	c0,0,1-1,1-3c0-1,1-3,2-4c2-1,2-2,1-2c-2-1-2-2-1-2c1-1,2-5,2-14s-1-13-2-15s-2-4-2-4c0-1-3,0-6,0c-5,2-5,2-7,8c-3,5-3,10,0,14
	c0,1,1,1,1,0c1-1,2-2,2-3s1-1,1,0c1,0,0,1,0,1c-1,1-1,2-1,2c1,1,1,6-1,7c-1,1-5-2-7-5c-3-8-2-30,3-39c2-4,6-7,10-7s11,6,13,15
	c4,9,5,30,3,45c0,3-1,7-1,8s0,2-1,2c0,0-1,2-2,4c0,3-1,6-2,7c-1,0-1,2-1,2c0,1-1,3-2,4c-2,2-2,3-2,4s-1,2-1,2c-1,0-2,1-4,2
	c-5,5-16,6-21,3c-3-2-6-5-7-7c0-2-1-2-1-2c-1,0-6-10-6-12c0-1-1-3-2-6c-3-6-5-19-4-33c1-23,2-37,3-41c2-9,4-17,4-18c-1-1,3-8,5-11
	c1-1,3-3,4-5s3-5,4-6c1-2,3-3,3-4c0-1,7-8,11-10c7-3,14-2,21,4c4,3,9,13,12,20c1,3,2,5,3,6c0,1,1,3,1,6c0,2,1,5,2,6s2,2,2,3s0,3,1,3
	c0,1,1,2,0,2c0,0,1,3,3,8c1,4,3,11,4,14c0,3,1,9,1,12c1,3,1,11,2,18c0,7,0,14,1,16c1,6,1,9,0,11c0,1,0,1,1,2c1,0,1,1-1,2
	c-1,1-1,4-1,9c-1,9-2,13-3,14c-1,0-2,2-2,3c0,2-2,6-9,14c-7,9-18,17-26,19C2140.3,311.9,2123.3,312.9,2122.3,311.9z M2135.3,306.9
	c0,0-1,0-2,0c-2,0-2,1-2,2C2132.3,309.9,2135.3,308.9,2135.3,306.9z M2141.3,307.9c2-1,1-1-2-1c-2,0-3,0-3,1
	C2137.3,308.9,2138.3,308.9,2141.3,307.9z M2154.3,303.9c0,0-1,0-2,0c-2,0-2,1-2,2c0,0,0,0,2,0
	C2153.3,304.9,2154.3,303.9,2154.3,303.9z M2131.3,302.9c0-1-1-1-2-1c0,0,0,0,0,1l1,1L2131.3,302.9z M2141.3,302.9c0,0-1,0-2,0
	c0,0,0,0,1,0S2142.3,302.9,2141.3,302.9z M2137.3,300.9c0,0-1,0-2,0c0,0,0,0,1,0S2138.3,300.9,2137.3,300.9z M2126.3,297.9
	c0-1-2-1-3,0c-2,1-1,1,0,1S2126.3,298.9,2126.3,297.9z M2101.3,292.9c0,0-2-1-3-3l-3-2l2,3C2100.3,292.9,2101.3,293.9,2101.3,292.9z
	 M2141.3,291.9c0-1-1,0-2,0c-1,1-1,1,1,1C2141.3,292.9,2141.3,291.9,2141.3,291.9z M2095.3,280.9c-1,0-1,0-1,0c0,1,1,3,1,2
	C2096.3,282.9,2095.3,281.9,2095.3,280.9z M2095.3,262.9c0-1-1-1-1-1v1C2095.3,264.9,2096.3,264.9,2095.3,262.9z M2118.3,261.9
	C2116.3,259.9,2116.3,259.9,2118.3,261.9c0,1,1,2,1,2C2120.3,263.9,2119.3,262.9,2118.3,261.9z M2143.3,253.9c0-1-1-1-2-1s-1,1-1,1
	s0,1,1,1S2143.3,253.9,2143.3,253.9z M2105.3,233.9l-1-1c-1,0-1,0-1,0c0,1,0,2,1,2L2105.3,233.9z M2103.3,225.9c0-2,0-3-1-3
	c-1-1-1,3,0,4S2103.3,227.9,2103.3,225.9z M2103.3,219.9c0-1-1-1-1-1s0,0,0,1s0,2,0,2C2103.3,221.9,2103.3,220.9,2103.3,219.9z
	 M2153.3,209.9c0,0,0,0,0,1s0,2,0,1C2153.3,211.9,2153.3,210.9,2153.3,209.9z M2179.3,204.9c0,0,0,0,0,1s0,2,0,1
	C2179.3,206.9,2179.3,205.9,2179.3,204.9z M2134.3,187.9c0-1-1-1-1-1s-1,0-1,1v1C2133.3,188.9,2134.3,187.9,2134.3,187.9z
	 M2153.3,142.9c0,0-1-1-2-1s-1,0-1,1c0,0,0,1,1,1S2153.3,142.9,2153.3,142.9z M2144.3,129.9c0,0-1,0-2,0c0,0,0,0,1,0
	S2145.3,129.9,2144.3,129.9z M2134.3,123.9c0-1,0-1-1-1s-1,1-1,2S2133.3,125.9,2134.3,123.9z"/>
<path class="st0" d="M1905.3,291.9c-1-2-2-5-3-6c0-2-1-4-1-5c0-2-1-3-1-3c-1-1-2-3-2-5c0-3-1-5-1-6c-1-1-2-4-3-7c0-4-1-8-2-10
	s-1-4-1-4c0-1-2-1-5-1c-7,0-11-1-12-3c-1-3,0-3,4-2c2,0,5,0,6,0s3,0,3,0c1,0,2-1,2-2s0-1-1-1c0,0,0,0,0-2c0-1-1-4-2-6c-2-4-2-6,0-5
	h1c0-1-1-1-2-1s-5-10-6-16c0-2-1-4-2-5s-5-19-6-24c0-2-1-4-2-5c-1-2-1-3,1-1c1,2,4,2,3,0c0-1-1-1-2-1c0,0-3-7-2-7c0-1,1,0,1,1
	s1,1,2,1h1c1,1,11,6,17,8c3,1,3,4,2,8c0,2-1,2-2,2c-1-1-2,0-1,5c1,10,4,33,6,40c0,1,1,3,1,5s1,4,1,4c3,0,14-9,15-12c0,0,0-2,1-4
	c4-7,4-13,3-32c0-6-1-10-2-11s-2-3-2-4c-1-4-3-6-8-9c-5-2-14-6-19-7c-21-4-29-6-37-6c-7,0-7,0-7,2s-1,2-2,2c0,0,0,0,0,1s1,1,1,1
	c1,0,5,6,5,8s-3,0-10-6l-7-7l2-3c6-12,38-9,69,7c27,14,35,24,32,44c-1,4-2,9-2,11c-1,2-2,5-3,7c-1,1-2,4-3,6c-1,3-8,11-10,11
	c0,0-2,1-3,2c-2,0-3,1-3,1c-1,0-2,1-4,1c-2,1-4,2-4,2c-1,0-1,2,1,6c0,1,2,7,4,14c3,7,5,13,6,15c1,1,2,4,2,6s0,4,1,5c2,1,2,3,0,2
	c0,0-1,0-1,1c0,2-1,3-2,3c0,0-1,0-2,0C1907.3,295.9,1906.3,294.9,1905.3,291.9z M1908.3,286.9c0-1-1-1-1-1c-1,0-1,0-1,1s1,2,1,2
	S1908.3,287.9,1908.3,286.9z M1917.3,227.9c0-1,0-1,0-1c-1,0-1,0-1,1v1L1917.3,227.9z M1883.3,212.9c0,0,0,0,0,1s0,2,0,1
	C1883.3,214.9,1883.3,213.9,1883.3,212.9z M1927.3,182.9c-1-1-1-1-1,1c0,1,1,1,1,1C1928.3,184.9,1927.3,183.9,1927.3,182.9z"/>
<path class="st0" d="M1985.3,285.9c-11-1-25-7-25-10c0,0-1-1-1,0c-1,1-12-12-12-14c0-1-1-1-1-1c-1,0-5-10-6-12c0-2-2-9-2-8s-1,1-2,1
	c0,0-2,0-4,1c-4,3-4,3-4,1c0-1,5-6,8-8c1-1,1-7,2-15c0-13,0-14,3-19c6-11,16-13,31-7c5,2,10,4,11,5c5,3,21,15,24,18c4,4,11,14,11,15
	c-1,2-16,3-48,4c-12,0-12,0-12,2c0,1,0,2,0,1c1,0,3,3,5,7c2,5,5,9,6,11c1,1,3,3,3,3c0,1,12,10,17,13c2,1,5,2,6,2c13,2,16,2,20-3
	c1-2,3-5,4-6c1-2,3-3,3-4l0,0c2,1,2-2,1-5c-1-2-1-3,1-4c1,0,1-1,0-1c-2-1-2-3,1-3c2,0,6,3,6,4s0,1,1,1c2,0,2,1,2,7c0,7-1,10-7,14
	C2018.3,282.9,1998.3,286.9,1985.3,285.9z M1980.3,277.9c0-1-1-1-2-1s0,0,1,1S1981.3,278.9,1980.3,277.9z M1980.3,227.9
	c10,0,19-1,19-1s-1-2-2-4c-2-2-2-3-2-2c1,2-2,0-8-8c-2-2-5-5-8-6c-3-2-6-4-7-5c-3-3-11-5-13-3c-4,5-5,7-5,18c0,12,1,13,4,12
	C1960.3,227.9,1969.3,227.9,1980.3,227.9z M2005.3,217.9c0-2-6-6-8-6s-3-1-4-1c-1-1-1,0,0,1s2,1,3,1c2,0,5,1,4,3c-1,0,0,1,0,0
	c1,0,2,0,3,1C2004.3,218.9,2005.3,218.9,2005.3,217.9z M1950.3,197.9c0-1,0-1-1-1c0,0,0,1,0,2S1949.3,199.9,1950.3,197.9z"/>
<path class="st0" d="M2056.3,281.9c-1-2-1-4-1-5s-1-4-2-7s-2-10-3-14c-2-5-2-9-2-10c1,0,0-1,0,0c0,0-2-6-4-14c-1-8-3-17-4-21
	c-2-8-4-23-5-32c0-3-1-6-1-8s-1-4-1-6s-1-6-1-10c-1-5-2-10-2-13s-1-6-1-8c0-1-1-4-1-7c-2-10-3-18-5-25c-2-6-2-8-1-9c1,0,1,0,0,0
	s-1-1-1-2c0-3,5-2,13,2c7,3,11,6,15,12c1,2,2,3,0,3c-1,1-2,0-3-1s-1-1-2,0c0,1,0,5,0,8c0,4,1,15,1,26c0,10,1,20,1,23c1,3,1,8,2,12
	c0,4,0,9,1,13c1,3,2,10,2,17s1,13,1,15c1,3,6,28,6,29c0,0,6,28,6,32l-1,1c-1,0-1,0-1,1C2062.3,286.9,2059.3,285.9,2056.3,281.9z
	 M2051.3,244.9c-1-2-1-2-1,1c0,1,0,2,0,2C2051.3,247.9,2051.3,246.9,2051.3,244.9z M2049.3,234.9l-1-1c-1,0-1,0-1,0c0,1,0,2,1,2
	L2049.3,234.9z M2043.3,200.9c-1-1-1-1-2-2c0-1,0,0,0,1s0,2,1,2S2043.3,200.9,2043.3,200.9z M2040.3,178.9c0-1,0-1,0,1s0,2,0,2
	C2040.3,180.9,2040.3,179.9,2040.3,178.9z M2040.3,172.9c0-1,0-1,0,1s0,2,0,2C2040.3,174.9,2040.3,173.9,2040.3,172.9z
	 M2039.3,164.9c0,0,0,0,0,2c0,1,0,1,0,1C2039.3,166.9,2039.3,165.9,2039.3,164.9z M2041.3,107.9c0-1,0-1,0-1c-1,0-1,0-1,1v1
	L2041.3,107.9z"/>
<path class="st0" d="M1754.3,348.9c-1-1-13-5-14-4c-2,0-5-2-5-3c0,0,0,0-1,0c-2,0-2-2-3-13c0-6-1-12-2-14c-1-3-2-7-2-9s-1-4-1-5
	c-1-1-3-8-3-10c0-1,0-1-1-2c-1,0-1,0,0,0s1-1,1-3c-1-1-1-2-1-2s0-2-1-3s-2-5-2-8c-1-3-2-8-2-10c-1-3-2-7-2-9c-1-8-2-11-2-11
	c0-1-1-2-1-4c-1-6-1-8-2-8c0-1-5-19-7-31c-1-5-2-9-2-10c-3-6-5-12-4-12c1-1-3-8-7-13c-3-4-6-12-5-13s2-1,2,0s0,1,0,1c1,0,2,0,2,1
	c1,0,1,0,1,0c1-1,3,0,5,4c2,3,4,6,5,7s3,3,3,5c0,1,2,4,3,6c0,2,2,7,4,10c1,3,3,7,4,9c2,2,4,6,5,8c2,3,3,5,4,5c0,0,1,0,0,0
	c-1,1,2,5,7,13c2,3,4,6,4,6s1,3,3,6c4,6,11,14,22,25c4,3,7,7,7,7s1,3,4,5c6,8,14,16,15,17c0,0,0-5-1-11c0-10-2-21-4-23c0-1-1-4-1-6
	c-1-3-1-5-2-5c0,0,0-1,0-3c0-1-2-6-3-12c-2-5-5-14-6-19c-1-6-4-14-6-20c-2-5-4-11-4-12s-1-1-2-1c-1,1,0-16,1-21c1-4,3-13,5-19
	c2-3,3-7,3-8c0-4,1-5,2-3c1,1,1,1,1,1c0-1,1-1,3,0s4,1,4,1c1-1,0,0-1,1c0,1-1,2,0,1c2-1,5,2,4,4c0,1-1,1-2,1c-1-1-2-1-3,1s-1,3-1,4
	c0,0,0,3-1,7c-2,7-2,20-1,26c1,2,2,6,2,9c1,10,7,35,9,35c0,0,1,0,1,1s1,5,2,9c2,4,3,8,3,9c2,10,5,19,6,22c2,4,6,24,8,47c0,3,1,6,1,7
	c1,2,0,2-2,2c-5,0-9-3-26-17c-11-9-17-17-17-20c1,0,0-1,0,0c0,0-1,0-2-1c-2-1-2-3,0-2c0,1,1,0,0,0c0-1-1-1-1-1c-2,1-22-32-22-35h-1
	c-1,0-1-1-1-2c0,0-2-3-4-7c-3-3-4-7-4-7c0-1-1-2-2-3c-2-1-2-1-1,1c1,0,1,2,1,3s1,5,3,8c2,6,2,8,5,20c1,4,3,9,4,13c1,3,2,8,3,11
	s2,8,3,11c2,11,11,35,16,47c1,3,3,6,3,6c0,1,1,3,3,6s3,5,3,6C1762.3,349.9,1756.3,348.9,1754.3,348.9z M1737.3,324.9c-1-3-1-4-2-2
	c-1,3-1,4,1,3c0,0,1,1,1,2c0,2,0,3,0,2C1737.3,329.9,1737.3,327.9,1737.3,324.9z M1744.3,326.9c-1-1-2,0-1,2s1,2,1,0
	C1744.3,327.9,1744.3,326.9,1744.3,326.9z M1795.3,304.9c0-1-1-1-2-1s-1,0-1,1c0,0,1,1,2,1L1795.3,304.9z M1763.3,277.9
	c-2-1-2-3-2-3c0-1-1-1-2-1c0,0,0,0,0,1c1,1,5,6,5,6C1765.3,280.9,1764.3,278.9,1763.3,277.9z M1724.3,269.9c0,0,0,0,0,1s0,2,0,1
	C1724.3,271.9,1724.3,270.9,1724.3,269.9z M1749.3,260.9l-3-3L1749.3,260.9c1,2,3,4,3,5s0,0,0,0
	C1752.3,264.9,1751.3,262.9,1749.3,260.9z M1721.3,258.9c0,0,0,0,0,2c0,1,0,1,0,1C1721.3,260.9,1721.3,259.9,1721.3,258.9z
	 M1720.3,246.9c0-1-1-1-2-1s0,0,1,1S1721.3,247.9,1720.3,246.9z M1717.3,236.9c0,0,0,0,0,2c0,1,0,1,0,1
	C1717.3,238.9,1717.3,237.9,1717.3,236.9z M1717.3,214.9c0-2-1-4-2-5c-2-2-2-2-1,0c1,1,2,4,2,5c0,2,0,4,0,4
	S1717.3,216.9,1717.3,214.9z M1798.3,197.9c0-2,0-2,0-2c0,1,0,2,0,3C1798.3,198.9,1798.3,198.9,1798.3,197.9z"/>
<path class="st0" d="M2144.3,409.9c-1,0-1-1-1-2s0-1,0-1c1,0,1,0,1-1c-1-1-1-1-1-1c0,1-1,2-2,2s-1-1-1-2s0-1-1-1s-1,1-1,2
	c0,0-1,1-2,1c-2,0-2-1,0-4c0-2,1-5,1-8s1-7,2-8c0-1,1-3,1-5c0-3,0-3,1-3c1,1,1,0,0,0c-1-1-1-4-1-6c1-3,0-9,0-13c-3-13-3-17-2-16
	c1,0,2,0,2-1c0,0,0,0,0,1c0,0,1,2,2,4s1,4,1,5s0,2,1,2s1,3,1,23c0,15,0,24-1,24c0,0,0,0,0,1c0,0,0,0,1,0c0,0,1,1,1,3c0,3-1,4-1,4
	H2144.3z M2247.3,328.9c0-4-1-7-3-6c0,0,0,0,0-2c0-1-2-3-3-4s-2-2-2-3c1,0,0-1,0,0c-1,0-2,0-3-1c0-2-1-2-2-2s-2-2-4-4c-1-1-3-3-4-4
	c0-1-3-4-5-7c-1-3-3-5-4-5c0,0,0-1,0-2s-3-4-4-3c-1,0-1,0-1,0c0-1,1-1,2-1c2,0,5,2,10,8c1,1,1,1,1,1c0-1,0-1,2,1c1,1,3,3,4,3
	s1,0,0,0c-2,1-1,2,1,2c1,0,2,1,2,2c0,0,0,1,1,2c1,0,3,2,4,3c0,1,3,5,6,8c2,2,5,6,5,7s1,2,2,2c0,0,1,0,2,1c2,1,5,7,3,6c0-1-2-2-4-2
	c-3-1-3-1-3,0s0,1,0,1c2,0,4,1,4,2c0,0-2,0-4,0C2247.3,331.9,2247.3,331.9,2247.3,328.9z M2074.3,319.9c0-2-1-3-2-4c-3-1,4-7,12-9
	c4-1,3,2-3,9C2074.3,321.9,2074.3,321.9,2074.3,319.9z M2307.3,235.9c-1,0-2-2-2-4c-2-2-3-3-4-2c0,0-1-1-2-1c-2-1-2-2-2-3
	c1-1,0-1-1,0c0,1-1,1-2,1c-2-2-28-6-49-8c-7-1-9-2-6-3c0,0-1,0-2,0c-2,1-4,1-5,1s-1-1-1-1c0-2,1-2,3-2s3,0,4-1c2-2,16,0,37,6
	c4,1,14,2,24,3c17,1,21,2,21,3c0,0-1,1-2,1c-2,0-2,0,0,1c1,1,1,1,1,1c-1,0-3,3-6,5C2308.3,237.9,2308.3,237.9,2307.3,235.9z
	 M2310.3,232.9c0-1,0-1,0-1c-1,0-2,0-2,1s0,2,0,2C2309.3,234.9,2310.3,233.9,2310.3,232.9z M2314.3,227.9c1-1,2-2,1-2c0,0-1,0-2,1
	C2311.3,228.9,2312.3,228.9,2314.3,227.9z M2217.3,158.9c0-1,0-2,0-3s0-1,2-1c1,0,3,0,3,1c0,0-1,0-2,0s-1,0-1,0
	C2220.3,156.9,2218.3,159.9,2217.3,158.9z M2215.3,146.9c-1-1,0-2,2-1c2,0,2,1,2,2C2218.3,148.9,2216.3,148.9,2215.3,146.9z
	 M2217.3,142.9c0,0,1-2,3-3c1-1,3-1,3-1s0,0,1-1s4-2,6-3s9-4,15-7c12-6,17-7,17-6s-1,2-1,2c-2,0-3,5-2,7s-1,7-3,7c-1,0-1-1-1-2
	c0-2-1-2-5-2c-3,0-5,0-5,1c0,0-1,0-2,0s-4,1-7,2s-6,2-7,2s-1,1-1,2c0,0-1,1-2,1s-3,0-3,1s0,1,0,0s-1-1-1-1c-1,0-1,0-1,1c1,1,0,2-2,2
	C2218.3,144.9,2217.3,143.9,2217.3,142.9z M2258.3,126.9c0-1-1-1-2-1c-2,0-2,1-2,1s0,1,2,1C2257.3,127.9,2258.3,126.9,2258.3,126.9z
	 M2259.3,129.9c0-1,0-2,0-2c2-1,3,2,2,3C2260.3,130.9,2260.3,130.9,2259.3,129.9z M2088.3,113.9c-1-1-4-3-7-4c-4-2-10-7-13-12
	c-2-1-2-1,0-1c1,0,2,0,2,0c0-2,3-2,5,0c1,1,1,2,1,3c-1,0,0,1,0,0c1-1,11,5,14,8s4,8,2,7C2091.3,114.9,2089.3,114.9,2088.3,113.9z
	 M2072.3,99.9c0-1,0-1,0-1c-1,0-1,0-1,1v1L2072.3,99.9z M2135.3,80.9c-1-4-1-12-2-23c0-7,0-13-1-15c0-2-1-8-1-12s-1-10-1-12
	c-1-4-1-5,2-3c2,0,2,1,2,2c-1,0,0,1,0,0c2-1,5,4,6,8c0,9,0,21-2,20c0-1-1,0,0,1c1,2,1,4,0,4c0,0,0,6,0,15c0,11,0,16-1,16
	C2136.3,82.9,2135.3,82.9,2135.3,80.9z M2136.3,33.9c0-1,0-2,0-2c-1,0-1,0-1,1C2135.3,34.9,2135.3,34.9,2136.3,33.9z M2136.3,26.9
	c0-1-1-1-1-1s0,0,0,1s0,2,0,2C2136.3,28.9,2136.3,27.9,2136.3,26.9z M2135.3,21.9c0,0,0,0,0,1s0,2,0,1
	C2135.3,23.9,2135.3,22.9,2135.3,21.9z"/>
<path class="st0" d="M2097.3,387.9c0-2-4-5-4-4c-1,0,0,1,1,2C2096.3,388.9,2097.3,388.9,2097.3,387.9z M1954.3,381.9c0-1-2-1-3,1
	c0,1,0,1,1,1S1954.3,382.9,1954.3,381.9z M1957.3,376.9C1959.3,374.9,1959.3,374.9,1957.3,376.9c-1,0-2,1-2,2
	S1955.3,379.9,1957.3,376.9z M2056.3,369.9c0-1-1-1-2-1s0,0,1,1S2057.3,370.9,2056.3,369.9z M2082.3,340.9c-1-1-22-11-22-11s1,1,3,2
	C2069.3,335.9,2085.3,342.9,2082.3,340.9z M2111.3,497.9c-5,0-14-1-20-1c-15-1-55-7-63-9c-1,0-4-1-5-1c-2,0-4-1-4-1c-1,0-4-1-8-2
	c-13-3-21-5-30-7c-10-2-31-9-35-12c-2,0-5-2-8-4s-7-4-8-4c-1-1-2-3-4-4c-4-2-10-13-10-16c0-1-1-2-2-2s0-18,1-26c1-5,4-9,5-8
	c0,1,1,0,0,0c-1-2,5-11,10-18c2-3,5-7,5-8c1-1,1-2,1-1c0,0,2-1,4-3c6-6,8-7,9-7s2-1,2-1c0-1,0-1,1-1s2-1,2-1c0-1,0-1,1-1
	c0,0,2-2,4-3c4-3,22-9,27-10c2,0,6-1,11-1c4,0,7-1,7-1c1-1-13-5-23-7c-18-4-36-4-56-2c-24,3-49,6-58,9c-3,1-9,2-15,4c-5,1-14,3-18,5
	c-5,1-11,3-13,3c-3,1-13,4-22,6c-9,3-18,6-18,6c-4,1-24,6-32,9c-1,0-7,2-13,3c-7,2-17,5-23,7c-22,8-78,23-104,27c-19,3-42,4-54,1
	c-7-1-27-8-29-9c0-1-4-2-7-3c-7-3-8-4-9-7c0-4,1-6,2-6s2-1,1-2c0-1,0-2,1-1c1,0,2,0,2-2c1-2,1-2,3,1c1,1,1,1,1,1c0-1,0-1,1,1
	c2,1,2,2,2,3c0,0,1,1,1,0c0,0,1,0,2,1c5,5,8,7,14,9s7,2,37,2c29,0,35,0,40-2c1,0,4-1,6-1c1,0,5-1,7-1c1-1,7-2,11-3c5,0,9-1,9-1
	c0-1-3-1-5,0c-23,4-59,5-81,2c-19-2-32-8-37-16c-2-3-2-7,0-7c0,0,0,0,0,1c0,0,0,1,1,1c0,0,2,1,4,2c11,13,23,16,64,16c12,1,20,0,26-1
	c5-1,11-2,15-2c5-1,18-3,45-10c8-2,18-5,22-5c9-3,25-7,29-8c1-1,7-2,12-4c5-1,12-2,15-4c3-1,9-2,12-3c4-1,14-3,22-6c7-2,17-4,20-5
	s10-3,15-4c15-5,60-17,70-19c7-1,34-7,37-7c2-1,5-2,7-2c12-1,19-2,27-3c4,0,18-1,31-1c20,0,24,1,32,2c5,1,10,3,11,3c0,0,4,1,8,3
	c10,2,27,10,29,13c0,2,2,2,2,2c2,0,7,4,11,9c5,6,7,8,7,9c0,0,1,3,3,7c7,11,8,13,8,23c1,6,0,11-1,15c-1,3-2,8-2,11c0,2-1,5-2,5
	c0,0,0,1,0,2c1,4-1,3-7-4c-2-3-6-7-7-7c-1-1-2-2-3-3c-2-4-13-14-19-17c-9-6-37-20-39-20c-1,0-3-1-3-1c0-1-6-3-14-4c-8-2-22,0-28,2
	c-2,1-5,2-7,2c-1,0-2,1-2,2c0,0-1,1-1,0c0,0-2,0-4,2c-1,1-3,2-3,2c-1,0-2,1-4,3c-1,2-2,3-3,3c0,0-3,3-5,7c-4,5-4,6-4,12c0,3-1,6-1,6
	c-2,1-2,7-1,9c1,1,2,4,2,6c1,4,8,11,14,15c3,1,7,3,7,4c1,0,5,2,8,3c3,2,5,3,5,4c0,0,0,0,1,0s3,0,6,2c5,2,29,10,36,11c1,1,5,2,7,2
	c8,3,21,6,35,7c3,0,7,1,8,1s5,1,8,1s8,1,12,1c3,1,22,1,42,1c47,0,71-2,113-11c2,0,8-1,13-2s12-2,17-3c4-1,11-2,14-2c4-1,8-2,9-3
	c6-4,13-7,14-6c1,0,0,1,0,1c-1,0-1,2-1,3s-2,3-3,4c-1,2-2,3-2,4c0,0,0,0-1,0c-1-1-2,0-1,0c1,2-13,13-21,15c-2,0-5,1-5,1
	c-1,1-3,1-4,1c-3,0-11,2-14,4c-2,0-3,1-4,1c0,0-1,0-2,0c0,1-4,2-7,3c-4,1-11,4-16,5c-4,2-9,4-11,4s-4,1-6,1c-2,1-6,2-10,3
	c-5,0-11,1-15,2c-5,0-9,1-10,1c-2,0-8,1-14,2c-6,0-11,1-11,1c-1,0-4,0-8,1c-4,0-8,0-10,1C2143.3,498.9,2122.3,498.9,2111.3,497.9z
	 M2168.3,491.9c5-1,13-2,19-2c10-2,11-2,17-3c3-1,5-1,6-1s1,0,1,0c0-1,8-3,21-6c9-2,33-9,41-12c6-2,14-6,14-7h-1c-1,0-19,4-27,5
	c-2,0-8,1-13,3c-11,2-32,5-41,6c-4,0-7,1-7,1c-1,0-4,1-7,1s-7,1-9,2c-3,0-7,1-10,1c-10,1-21,3-29,4c-12,3-47,3-72,1c-11-2-24-3-28-3
	c-16-1-35-4-40-7c-1,0-2,0-4,0c-2,1-6-1-12-5c-2-1-7-4-11-6c-17-7-19-9-29-16c-8-5-9-6-17-14c-7-6-8-9-8-17c-1-4-1-7-2-8
	c0-1-1-1,0,0c0,1,0,3-1,5c-1,5-1,11,0,11l0,0c0,2,2,10,4,15c6,14,24,24,63,34c4,2,8,3,9,3s7,1,12,2s11,3,13,3s7,1,11,2s9,3,11,3
	s5,1,7,1c18,3,25,4,34,4C2100.3,492.9,2157.3,492.9,2168.3,491.9z M2135.3,479.9c2-1,9-2,14-2c24-1,19-2-17-2c-20,0-37-1-37-1
	c-1,0-6-1-11-1s-10,0-10-1c0,0-3,0-6,0c-2,0-9-1-15-2c-5-1-14-2-19-2c-5-1-13-2-17-3c-15-4-38-11-39-12c-1,0-1,0-1,0c0,1-15-7-21-12
	c-7-4-17-14-18-17c0-1-1-1-2-1s-5-10-6-17c0-4-1-7-2-7c0,0,0,0,0,1s-1,1-2,2c-1,0-2,14-1,16c0,1,1,2,1,3c0,3,2,5,4,6c1,0,1,1,1,2
	c0,0,0,1,2,2c1,1,3,4,5,5s3,2,4,2c0,0,1,0,1,1s2,2,4,4c2,1,5,3,6,4c2,1,7,4,11,7c5,2,10,4,12,5c7,4,42,14,52,15c12,2,26,4,30,4
	c9,0,21,2,22,2C2080.3,481.9,2130.3,480.9,2135.3,479.9z M2215.3,469.9c0,0-1,0-2,0c0,0,0,0,1,0S2216.3,469.9,2215.3,469.9z
	 M2313.3,453.9c1-2,1-2-1-1c-1,2-2,3-1,3C2311.3,455.9,2312.3,454.9,2313.3,453.9z M1643.3,404.9c0-1-1-1-2-1c0,0,0,0,0,1l1,1
	L1643.3,404.9z M1647.3,403.9c1-2-1-2-2,0c-2,0-2,0,0,0C1646.3,403.9,1647.3,403.9,1647.3,403.9z M2108.3,390.9c2-13-2-26-9-33
	c-1-2-2-3-2-4s-10-7-16-9c-4-1-7-2-7-2c-1-1-3-2-6-4c-6-3-8-3-23-7c-4-1-9-3-12-4c-5-3-8-4-15-4c-6,0-6,0,2,1c4,1,10,2,12,3
	c3,1,18,11,20,12c1,2,3,2,2,0s4,0,13,5c5,2,10,4,11,5s3,3,4,4c2,0,3,1,4,2c0,0,2,1,4,2c2,2,4,3,4,4l0,0c1-1,10,8,12,12c1,4,0,5-3,2
	c-4-6-7-9-8-9s-1-1-1-1c0-1-4-4-9-7c-12-8-13-9-13-8c0,2-3,2-6,0l-3-2l3,2c13,12,28,27,30,31c4,5,8,15,9,18s1,3,2,1
	C2107.3,398.9,2108.3,394.9,2108.3,390.9z M1662.3,392.9c1-2,0-2-3,0c-1,0-1,0,0,0C1659.3,392.9,1661.3,392.9,1662.3,392.9z
	 M1694.3,382.9c0,0-1,0-3,0c-3,0-4,0-4,1C1688.3,384.9,1693.3,383.9,1694.3,382.9z M1701.3,380.9c0,0,0,0-2,0c-4,1-4,2-1,2
	C1699.3,382.9,1701.3,381.9,1701.3,380.9z M1727.3,378.9c0,0-1,0-2,0c0,0,0,0,1,0S1728.3,378.9,1727.3,378.9z M1763.3,370.9
	c1-2,0-2-3,0c-1,0-1,0,0,0C1760.3,370.9,1762.3,370.9,1763.3,370.9z M1743.3,369.9c0,0-1,0-2,0c0,0,0,0,1,0
	S1744.3,369.9,1743.3,369.9z M1779.3,365.9c0,0-1,0-2,0c0,0,0,0,1,0S1780.3,365.9,1779.3,365.9z M1784.3,364.9c0-1,0-1-1-1
	c-3,1-3,2-1,2C1783.3,365.9,1784.3,364.9,1784.3,364.9z M2068.3,329.9c0-1-1-1-1-1c-1,0-4-2-7-3c-7-3-10-4-14-5c-2,0-8-2-12-3
	c-9-3-10-3-29-3s-37,1-41,2c-1,0-5,1-9,1c-12,1-21,3-22,4c0,0,0,0,2,0c1,0,3-1,5-1c5-1,29-2,38-2c4,0,8,0,8-1c0,0,4,0,18,1
	c5,1,10,1,10,1c3-1,22,2,29,4c4,2,7,2,7,1s0,0,0,1s1,2,2,1c1,0,2,0,2,0c0,1,1,2,3,2c1,0,1,0-2-2c-4-3-4-3-1-2c2,0,5,2,8,3s5,2,5,2
	H2068.3z M2101.3,363.9c-1-1-1-2-1-2c1,0,2,1,2,2c1,1,1,3,1,3S2102.3,364.9,2101.3,363.9z"/>
</svg>
